<svg width="127" height="120" xmlns="http://www.w3.org/2000/svg" xmlns:xlink="http://www.w3.org/1999/xlink" xml:space="preserve" overflow="hidden"><defs><filter id="fx0" x="-10%" y="-10%" width="120%" height="120%" filterUnits="userSpaceOnUse" primitiveUnits="userSpaceOnUse"><feComponentTransfer color-interpolation-filters="sRGB"><feFuncR type="discrete" tableValues="0 0"/><feFuncG type="discrete" tableValues="0 0"/><feFuncB type="discrete" tableValues="0 0"/><feFuncA type="linear" slope="0.4" intercept="0"/></feComponentTransfer><feGaussianBlur stdDeviation="1.48263 1.48263"/></filter><clipPath id="clip1"><rect x="122" y="881" width="127" height="144"/></clipPath><clipPath id="clip2"><rect x="41" y="39" width="45" height="53"/></clipPath></defs><g clip-path="url(#clip1)" transform="translate(-122 -881)"><path d="M130.5 942.5C130.5 916.543 154.677 895.5 184.5 895.5 214.323 895.5 238.5 916.543 238.5 942.5 238.5 968.457 214.323 989.5 184.5 989.5 154.677 989.5 130.5 968.457 130.5 942.5Z" stroke="#64310F" stroke-width="4.58333" stroke-miterlimit="8" fill="#ED7D31" fill-rule="evenodd"/><g clip-path="url(#clip2)" filter="url(#fx0)" transform="translate(121 880)"><g><path d="M35.75-34.9375C35.75-34.5417 35.7292-34.1927 35.6875-33.8906 35.6458-33.5885 35.5833-33.3385 35.5-33.1406 35.4167-32.9427 35.3125-32.8021 35.1875-32.7187 35.0625-32.6354 34.9271-32.5937 34.7812-32.5937 34.5312-32.5937 34.1146-32.7917 33.5312-33.1875 32.9479-33.5833 32.1667-34.0208 31.1875-34.5 30.2083-34.9792 29.0365-35.4167 27.6719-35.8125 26.3073-36.2083 24.6875-36.4062 22.8125-36.4062 20.5833-36.4062 18.5833-36 16.8125-35.1875 15.0417-34.375 13.5417-33.25 12.3125-31.8125 11.0833-30.375 10.1406-28.6667 9.48437-26.6875 8.82812-24.7083 8.5-22.5625 8.5-20.25 8.5-17.6667 8.85937-15.375 9.57812-13.375 10.2969-11.375 11.2917-9.6875 12.5625-8.3125 13.8333-6.9375 15.349-5.89583 17.1094-5.1875 18.8698-4.47917 20.8021-4.125 22.9062-4.125 24.1562-4.125 25.4219-4.27604 26.7031-4.57812 27.9844-4.88021 29.1771-5.33333 30.2812-5.9375L30.2812-17.7187 20.9062-17.7187C20.5521-17.7187 20.2865-17.8958 20.1094-18.25 19.9323-18.6042 19.8437-19.1562 19.8437-19.9062 19.8437-20.3021 19.8646-20.6406 19.9062-20.9219 19.9479-21.2031 20.0156-21.4323 20.1094-21.6094 20.2031-21.7865 20.3125-21.9167 20.4375-22 20.5625-22.0833 20.7187-22.125 20.9062-22.125L33.75-22.125C33.9792-22.125 34.2083-22.0833 34.4375-22 34.6667-21.9167 34.875-21.7917 35.0625-21.625 35.25-21.4583 35.3958-21.2292 35.5-20.9375 35.6042-20.6458 35.6562-20.3125 35.6562-19.9375L35.6562-4.53125C35.6562-3.98958 35.5625-3.52083 35.375-3.125 35.1875-2.72917 34.7917-2.38021 34.1875-2.07812 33.5833-1.77604 32.8021-1.44792 31.8437-1.09375 30.8854-0.739583 29.8958-0.4375 28.875-0.1875 27.8542 0.0625 26.8229 0.25 25.7812 0.375 24.7396 0.5 23.7083 0.5625 22.6875 0.5625 19.5625 0.5625 16.7708 0.0781249 14.3125-0.890625 11.8542-1.85937 9.77604-3.23958 8.07812-5.03125 6.38021-6.82292 5.08333-8.96875 4.1875-11.4687 3.29167-13.9687 2.84375-16.7604 2.84375-19.8437 2.84375-23.0521 3.32812-25.9583 4.29687-28.5625 5.26562-31.1667 6.63021-33.3854 8.39062-35.2187 10.151-37.0521 12.2656-38.474 14.7344-39.4844 17.2031-40.4948 19.9375-41 22.9375-41 24.4792-41 25.9271-40.8646 27.2812-40.5937 28.6354-40.3229 29.8385-40.0052 30.8906-39.6406 31.9427-39.276 32.8281-38.8802 33.5469-38.4531 34.2656-38.026 34.7604-37.6771 35.0312-37.4062 35.3021-37.1354 35.4896-36.8229 35.5937-36.4687 35.6979-36.1146 35.75-35.6042 35.75-34.9375Z" transform="matrix(1 0 0 1 44.321 85)"/></g></g><text font-family="Calibri,Calibri_MSFontService,sans-serif" font-weight="400" font-size="64" transform="matrix(1 0 0 1 163.65 963)">G</text></g></svg>