<svg width="130" height="191" xmlns="http://www.w3.org/2000/svg" xmlns:xlink="http://www.w3.org/1999/xlink"
     xml:space="preserve" overflow="hidden"><defs><filter id="fx0" x="-10%" y="-10%" width="120%" height="120%" filterUnits="userSpaceOnUse" primitiveUnits="userSpaceOnUse"><feComponentTransfer color-interpolation-filters="sRGB"><feFuncR type="discrete" tableValues="0 0"/><feFuncG
        type="discrete" tableValues="0 0"/><feFuncB type="discrete" tableValues="0 0"/><feFuncA type="linear"
                                                                                                slope="0.4"
                                                                                                intercept="0"/></feComponentTransfer><feGaussianBlur
        stdDeviation="1.12239 1.12239"/></filter><clipPath id="clip1"><rect x="27" y="27" width="47" height="32"/></clipPath></defs>
    <g transform="translate(-128 -656)">
        <rect x="130.5" y="658.5" width="125" height="186" stroke="#000000" stroke-width="5.58333" stroke-miterlimit="8" fill="#ED7D31"/>
        <g clip-path="url(#clip1)" filter="url(#fx0)" transform="translate(143 784)"><g><path d="M19.6792-24.4238C19.6792-24.1702 19.6658-23.95 19.6392-23.7632 19.6125-23.5763 19.5691-23.4262 19.509-23.3127 19.449-23.1993 19.3756-23.1159 19.2888-23.0625 19.2021-23.0091 19.1053-22.9824 18.9985-22.9824L11.7114-22.9824 11.7114-0.520508C11.7114-0.413737 11.6847-0.320312 11.6313-0.240234 11.578-0.160156 11.4845-0.096761 11.3511-0.0500488 11.2176-0.00333659 11.0408 0.0367025 10.8206 0.0700684 10.6003 0.103434 10.3234 0.120117 9.98975 0.120117 9.66943 0.120117 9.39583 0.103434 9.16894 0.0700684 8.94206 0.0367025 8.76188-0.00333659 8.62842-0.0500488 8.49495-0.096761 8.40153-0.160156 8.34814-0.240234 8.29476-0.320312 8.26807-0.413737 8.26807-0.520508L8.26807-22.9824 0.980957-22.9824C0.874186-22.9824 0.777425-23.0091 0.690674-23.0625 0.603922-23.1159 0.533854-23.1993 0.480469-23.3127 0.427083-23.4262 0.383708-23.5763 0.350342-23.7632 0.316976-23.95 0.300293-24.1702 0.300293-24.4238 0.300293-24.6774 0.316976-24.901 0.350342-25.0945 0.383708-25.288 0.427083-25.4448 0.480469-25.5649 0.533854-25.6851 0.603922-25.7718 0.690674-25.8252 0.777425-25.8786 0.874186-25.9053 0.980957-25.9053L18.9985-25.9053C19.1053-25.9053 19.2021-25.8786 19.2888-25.8252 19.3756-25.7718 19.449-25.6851 19.509-25.5649 19.5691-25.4448 19.6125-25.288 19.6392-25.0945 19.6658-24.901 19.6792-24.6774 19.6792-24.4238ZM40.7723-0.520508C40.7723-0.413737 40.7523-0.320312 40.7122-0.240234 40.6722-0.160156 40.5854-0.0934245 40.452-0.0400391 40.3185 0.0133463 40.1317 0.0533854 39.8914 0.0800781 39.6512 0.106771 39.3309 0.120117 38.9305 0.120117 38.5835 0.120117 38.2999 0.106771 38.0797 0.0800781 37.8595 0.0533854 37.6826 0.0100098 37.5491-0.0500488 37.4157-0.110107 37.3122-0.193522 37.2388-0.300293 37.1654-0.407064 37.102-0.540527 37.0487-0.700684L34.6663-6.80664C34.3861-7.50065 34.0958-8.13794 33.7955-8.7185 33.4952-9.29907 33.1382-9.79956 32.7244-10.22 32.3107-10.6404 31.8236-10.9674 31.263-11.2009 30.7025-11.4345 30.0285-11.5513 29.241-11.5513L26.9388-11.5513 26.9388-0.520508C26.9388-0.413737 26.9088-0.320312 26.8487-0.240234 26.7887-0.160156 26.6952-0.096761 26.5684-0.0500488 26.4416-0.00333659 26.2681 0.0367025 26.0479 0.0700684 25.8277 0.103434 25.5508 0.120117 25.2171 0.120117 24.8835 0.120117 24.6065 0.103434 24.3863 0.0700684 24.1661 0.0367025 23.9893-0.00333659 23.8558-0.0500488 23.7223-0.096761 23.6289-0.160156 23.5755-0.240234 23.5221-0.320312 23.4954-0.413737 23.4954-0.520508L23.4954-24.5039C23.4954-25.0244 23.6322-25.3881 23.9058-25.595 24.1794-25.8018 24.4697-25.9053 24.7767-25.9053L30.2821-25.9053C30.936-25.9053 31.4799-25.8886 31.9137-25.8552 32.3474-25.8219 32.7378-25.7852 33.0848-25.7451 34.0858-25.5716 34.97-25.298 35.7374-24.9243 36.5048-24.5506 37.1488-24.0768 37.6693-23.5029 38.1898-22.929 38.5802-22.2717 38.8404-21.531 39.1007-20.7903 39.2308-19.9728 39.2308-19.0786 39.2308-18.2111 39.114-17.4337 38.8804-16.7463 38.6469-16.059 38.3099-15.4517 37.8695-14.9246 37.429-14.3974 36.9018-13.9403 36.2879-13.5532 35.674-13.1662 34.9867-12.8392 34.2259-12.5723 34.653-12.3854 35.04-12.1485 35.387-11.8616 35.734-11.5746 36.0577-11.231 36.358-10.8306 36.6583-10.4302 36.9419-9.96972 37.2088-9.44922 37.4757-8.92871 37.7427-8.34147 38.0096-7.6875L40.3319-1.98193C40.5187-1.50146 40.6388-1.16447 40.6922-0.970947 40.7456-0.777425 40.7723-0.627279 40.7723-0.520508ZM35.5872-18.7183C35.5872-19.7326 35.3603-20.5901 34.9066-21.2908 34.4528-21.9915 33.6921-22.4953 32.6243-22.8022 32.2907-22.8957 31.9137-22.9624 31.4932-23.0024 31.0728-23.0425 30.5223-23.0625 29.8416-23.0625L26.9388-23.0625 26.9388-14.334 30.3021-14.334C31.2096-14.334 31.9937-14.4441 32.6544-14.6643 33.315-14.8845 33.8656-15.1915 34.306-15.5852 34.7464-15.9789 35.0701-16.4427 35.2769-16.9766 35.4838-17.5104 35.5872-18.091 35.5872-18.7183Z" transform="matrix(1 0 0 1 29.855 56)"/></g></g>
        <text font-family="Calibri,Calibri_MSFontService,sans-serif" font-weight="400" font-size="41"
              transform="matrix(1 0 0 1 171.555 839)">TR</text>
        <path d="M166.5 731C166.5 716.364 177.469 704.5 191 704.5 204.531 704.5 215.5 716.364 215.5 731 215.5 745.636 204.531 757.5 191 757.5 177.469 757.5 166.5 745.636 166.5 731Z"
              stroke="#000000" stroke-width="3.4375" stroke-linejoin="round" stroke-miterlimit="10" fill="none"
              fill-rule="evenodd"/>
        <path d="M166.5 757C166.5 742.364 177.469 730.5 191 730.5 204.531 730.5 215.5 742.364 215.5 757 215.5 771.635 204.531 783.5 191 783.5 177.469 783.5 166.5 771.635 166.5 757Z"
              stroke="#000000" stroke-width="3.4375" stroke-linejoin="round" stroke-miterlimit="10" fill="none"
              fill-rule="evenodd"/>
        <path d="M0 0 0.000360892 25.9846" stroke="#000000" stroke-width="3.4375" stroke-linejoin="round"
              stroke-miterlimit="10" fill="none" fill-rule="evenodd" transform="matrix(1 0 0 -1 190.5 704.485)"/>
        <path d="M0 0 0.000360892 21.7236" stroke="#000000" stroke-width="3.4375" stroke-linejoin="round"
              stroke-miterlimit="10" fill="none" fill-rule="evenodd" transform="matrix(1 0 0 -1 190.5 805.223)"/>
    </g>
</svg>